# xmcd
#
# Track frame offsets:
#	150
#	19627
#	35469
#	51101
#	65694
#	76142
#	92175
#	107595
#	120310
#	134575
#	151131
#	167354
#	183535
#	203887
#	215415
#	227416
#	245041
#	265805
#	282492
#	294095
#
# Disc length: 4134 seconds
#
# Revision: 3
# Processed by: cddbd v1.5.2PL0 Copyright (c) Steve Scherf et al.
# Submitted via: EasyCDDAExtractor 11.5.0.1
#
DISCID=12102414
DTITLE=Various Artist - NCT 056
DYEAR=2003
DGENRE=Country
TTITLE0=Toby Keith - American Soldier
TTITLE1=Pat Green - Guy Like Me
TTITLE2=Clay Walker - I Can't Sleep
TTITLE3=Martina McBride - In My Daughter's Eyes
TTITLE4=Marty Stuart - Too Much Month (At The End Of The Money)
TTITLE5=Carolyn Dawn Johnson - Simple Life
TTITLE6=Chad Brock - You Are
TTITLE7=Mark Wills - That's A Woman
TTITLE8=Bobby Carlson - Paper Plates And Dixie Cups
TTITLE9=Darryl Worley - I Will Hold My Ground
TTITLE10=Billy Ray Cyrus - Always Sixteen
TTITLE11=Bill Engvall ft. Neal McCoy - Here's Your Sign (Wear It All The Time)
TTITLE12=Donovan Chapman - There Is No War
TTITLE13=Shane Sellers - There's A Song On The Jukebox
TTITLE14=Jill King - Hand Me Down Heartache
TTITLE15=Steve Wariner - Carmelita
TTITLE16=Kenny Chesney - All I Want For Christmas Is A Real Good Tan
TTITLE17=LeAnn Rimes - O Holy Night
TTITLE18=Pat Green - Winter Wonderland
TTITLE19=Reba McEntire - Silent Night
EXTD=
EXTT0=
EXTT1=
EXTT2=
EXTT3=
EXTT4=
EXTT5=
EXTT6=
EXTT7=
EXTT8=
EXTT9=
EXTT10=
EXTT11=
EXTT12=
EXTT13=
EXTT14=
EXTT15=
EXTT16=
EXTT17=
EXTT18=
EXTT19=
PLAYORDER=
